HIERARCHY
ROOT Spine
{
    OFFSET 0.0 0.0 -0.0
    CHANNELS 6 Xposition Yposition Zposition Zrotation Xrotation Yrotation
    JOINT ShoulderCenter
    {
        OFFSET 0.0 31.728389739990234 0.0
        CHANNELS 3 Zrotation Xrotation Yrotation
        JOINT LeftShoulder
        {
            OFFSET 12.270933151245117 0.0 0.0
            CHANNELS 3 Zrotation Xrotation Yrotation
            JOINT LeftElbow
            {
                OFFSET 28.583253860473633 0.0 0.0
                CHANNELS 3 Zrotation Xrotation Yrotation
                JOINT LeftHand
                {
                    OFFSET 30.767227172851562 0.0 0.0
                    CHANNELS 3 Zrotation Xrotation Yrotation
                    End Site
                    {
                        OFFSET 12.306890487670898 0.0 0.0
                    }
                }
            }
        }
        JOINT RightShoulder
        {
            OFFSET -12.270933151245117 0.0 0.0
            CHANNELS 3 Zrotation Xrotation Yrotation
            JOINT RightElbow
            {
                OFFSET -28.583253860473633 0.0 0.0
                CHANNELS 3 Zrotation Xrotation Yrotation
                JOINT RightHand
                {
                    OFFSET -30.767227172851562 0.0 0.0
                    CHANNELS 3 Zrotation Xrotation Yrotation
                    End Site
                    {
                        OFFSET -12.306890487670898 0.0 0.0
                    }
                }
            }
        }
        End Site
        {
            OFFSET 0.0 12.691354751586914 0.0
        }
    }
    JOINT LeftHip
    {
        OFFSET 15.613407252443304 -15.613407252443304 0.0
        CHANNELS 3 Zrotation Xrotation Yrotation
        JOINT LeftKnee
        {
            OFFSET 0.0 -34.830108642578125 0.0
            CHANNELS 3 Zrotation Xrotation Yrotation
            JOINT LeftFoot
            {
                OFFSET 0.0 -40.196746826171875 0.0
                CHANNELS 3 Zrotation Xrotation Yrotation
                End Site
                {
                    OFFSET 0.0 0.0 16.078697204589844
                }
            }
        }
    }
    JOINT RightHip
    {
        OFFSET -15.613407252443304 -15.613407252443304 0.0
        CHANNELS 3 Zrotation Xrotation Yrotation
        JOINT RightKnee
        {
            OFFSET 0.0 -34.830108642578125 0.0
            CHANNELS 3 Zrotation Xrotation Yrotation
            JOINT RightFoot
            {
                OFFSET 0.0 -40.196746826171875 0.0
                CHANNELS 3 Zrotation Xrotation Yrotation
                End Site
                {
                    OFFSET 0.0 0.0 16.078697204589844
                }
            }
        }
    }
}
MOTION
Frames: 5
Frame Time: 0.03333333333333333
-52.39999771118164 -3.799999952316284 33.89999771118164 -2.0860005100581236 -17.451116580788025 156.93507722011006 -2.046254929143967e-07 5.20271578759279e-07 0.3530105398420093 97.5913949761853 -2.1621817812829627 166.3358289830256 5.472110056150347e-06 -5.174266325026938e-06 100.23285218474827 -6.361109362927032e-15 0.0 0.0 -98.65120684415037 -38.12060386139455 175.65132081097272 8.037624316441314e-06 4.020665262880469e-06 -88.67448498199973 -6.3611093629270335e-15 -9.54166404439055e-15 -5.29668755766019e-31 7.437801580712149 -17.995131850209358 -41.00932581117925 -15.79974658977363 23.703451178287374 -24.891001581570592 0.0 0.0 -2.186631343506168e-15 14.464146485270073 -31.879107993748836 12.930123637559578 -7.518846418488371 16.6491374648224 29.74623514539791 -2.4848083448933725e-17 4.862732463367026e-34 -2.2425395312662685e-15
-50.30000305175781 -3.700000047683716 32.0 -4.51399088381358 -16.0968615307288 147.60927398927717 1.30525872634591e-06 -7.900327786863179e-07 0.9621323810568313 96.96363448450776 -0.9081989471730156 166.11315274467384 8.878622972433128e-07 2.4909427855459117e-06 100.01829609609875 -3.531125038440127e-31 -6.3611093629270335e-15 -6.3611093629270335e-15 -98.55526367222724 -38.18923196707466 175.3545860723927 2.1443722261876123e-06 -2.2355760207888016e-06 -87.71104816848255 -6.3611093629270335e-15 -3.1805546814635176e-15 9.54166404439055e-15 10.667856597467528 -23.672677127163272 -31.143449767323787 -26.036395461241085 33.95867405291242 -29.184921405622305 7.724336021587778e-32 3.1805546814635168e-15 -2.782985346280577e-15 16.505233129792494 -27.605151591562873 18.09284752358513 -7.235006985736339 14.10265718152576 23.47065495897049 -2.644962007747828e-18 7.765026077791789e-19 6.992489396417576e-16
-48.0 -3.799999952316284 29.899999618530273 -6.567635992743743 -15.349744168157166 139.96447384306913 -2.4822882060701096e-08 1.5300958047674258e-06 1.5801191158559336 97.09968507807831 -1.785958380988783 167.23595850689395 4.319861930398446e-06 -4.5938914338668915e-06 99.1336029484302 -6.3611093629270335e-15 0.0 0.0 -98.7139887906158 -37.18140666200455 174.7527929516685 2.2977889787799415e-06 2.6758836099972113e-07 -87.44938382923189 8.827812596100317e-32 3.1805546814635168e-15 -3.1805546814635168e-15 10.751113346146902 -31.5513346273267 -7.192440679535605 -12.6578583170245 47.75419740792635 -52.10048905256653 0.0 0.0 -6.361109362927033e-15 17.85560480773823 -24.521646854405283 22.072217125997895 -6.926032610683007 13.012318169032918 20.673546137188076 7.842676338569708e-17 2.5243419962997e-35 3.6883873869511003e-17
-45.5 -4.0 27.399999618530273 -8.235615201934573 -14.423225736955906 134.31178526235047 -2.3979055899678585e-07 7.064432177916722e-07 1.5452363150686743 97.2263281662591 -2.751543344570741 168.79627261511666 -3.1142945569498946e-06 1.0370963720497235e-06 97.40847853297059 0.0 -7.951386703658792e-16 0.0 -98.44443207973143 -35.76016302412437 175.34787881322197 -8.678501221486907e-07 3.0578925156667253e-07 -87.47257897165085 -6.361109362927035e-15 3.531125038440127e-31 -6.361109362927035e-15 6.792586121072589 -39.2677421898803 12.755355420054684 18.731950931672436 45.76621291705938 -86.31750274376179 0.0 0.0 0.0 18.02545459937297 -21.789956550774757 24.414860421332552 -6.7993001715689205 12.869394275904863 19.875592494125982 7.454425034680117e-17 2.1417575115660865e-34 3.2923710569837183e-16
-42.39999771118164 -3.9000000953674316 24.69999885559082 -9.706647491943112 -13.492277712668857 128.81909933427863 -6.581118389102503e-07 6.748147537438097e-07 2.4045365648212287 97.44653343181803 -4.009922951989833 170.93475746330554 1.5603108468687865e-06 1.5421501532317196e-06 95.6844197736524 -6.3611093629270335e-15 -7.156248033292914e-15 -3.972515668245143e-31 -98.21925909828593 -34.37754706513536 176.37120784339834 2.1882456995898656e-06 -2.330247365715469e-07 -87.39840529819276 0.0 0.0 3.1805546814635168e-15 2.8669580501217062 -43.823273265775754 18.509526439185063 25.868031725565604 32.216535192310374 -89.92465320290867 0.0 0.0 -2.584200678689107e-15 17.11124900042103 -16.77457886289145 30.188090535699924 -6.091857558384275 9.52612544758851 14.038002610413013 -1.4908850069360232e-16 3.232841526892206e-35 -2.4848083448933722e-17
